<?xml version="1.0" encoding="UTF-8"?>
<svg version="1.1" viewBox="0 0 2048 2048" width="1280" height="1280" xmlns="http://www.w3.org/2000/svg">
<path transform="translate(189,1638)" d="m0 0h1665l22 2 20 4 21 7 17 8 18 10 13 9 13 11 8 7 10 10 8 10 10 13 10 18 8 15 8 21 6 24h2v69l-2 2-5 21-7 20-8 17-12 21-10 13-18 21-14 11-12 10-21 12-16 8-18 7-27 7-8 2h-1691l-33-8-20-7-25-13-14-9-17-14-10-9-13-14-13-17-12-21-10-21-5-15-7-29v-57l4-16 6-21 6-15 13-25 7-11 14-17 9-11 15-13 15-12 23-13 16-8 20-7 23-5z"/>
<path transform="translate(176)" d="m0 0h1699v2l9 1 23 6 16 6 33 18 18 14 14 12 10 11 11 14 7 10 13 24 7 15 8 26 2 10 2 1v67l-2 2-6 25-8 22-10 19-7 12-8 11-14 17-11 11-10 8-16 12-18 10-15 8-20 7-25 6-15 2-14 1h-1651l-23-2-17-3-20-6-15-6-25-13-12-8-13-11-10-8-9-9-20-25-10-18-9-17-7-19-6-25-2-6v-58l7-28 7-20 8-16 11-20 8-11 9-10 8-10 8-8 9-7 15-12 18-10 19-10 24-8z"/>
<path transform="translate(187,819)" d="m0 0h1673l23 3 21 5 20 8 27 14 13 9 13 11 11 9 2 4h2l20 25 9 15 12 23 7 19 6 24h2v69l-2 2-6 24-6 17-8 16-10 19-9 12-11 13-6 8h-2v2l-11 9-16 13-15 9-25 13-24 8-24 5-21 2h-1656l-29-3-24-6-21-8-26-14-10-7-22-18-10-10-9-11-11-14-13-23-9-19-5-15-7-29v-57l4-16 6-21 6-16 14-26 8-12 12-14 9-11 11-10 14-11 8-6 27-15 19-8 18-5 21-4z"/>
<path transform="translate(172,2047)" d="m0 0 3 1z"/>
</svg>
