<!-- icon666.com - MILLIONS vector ICONS FREE --><svg fill="none" viewBox="0 0 24 24" xmlns="http://www.w3.org/2000/svg" xmlns:xlink="http://www.w3.org/1999/xlink"><linearGradient id="paint0_linear_3195_2315" gradientUnits="userSpaceOnUse" x1="12" x2="12" y1="2.64" y2="21.37"><stop offset="0" stop-color="#fd5394"></stop><stop offset="1" stop-color="#8100e4"></stop></linearGradient><g fill="url(#paint0_linear_3195_2315)"><path d="m17.5401 9.06014c-1.77 0-3.21-1.44-3.21-3.21s1.44-3.21 3.21-3.21 3.21 1.44 3.21 3.21-1.44 3.21-3.21 3.21zm0-4.93c-.94 0-1.71.77-1.71 1.71s.77 1.71 1.71 1.71 1.71-.77 1.71-1.71-.77-1.71-1.71-1.71z" fill="url(#paint0_linear_3195_2315)" style="fill: rgb(0, 0, 0);"></path><path d="m6.46001 9.06014c-1.77 0-3.21001-1.44-3.21001-3.21s1.44001-3.21 3.21001-3.21 3.20999 1.44 3.20999 3.21-1.43999 3.21-3.20999 3.21zm0-4.93c-.94 0-1.71001.77-1.71001 1.71s.77001 1.71 1.71001 1.71 1.70999-.77 1.70999-1.71-.75999-1.71-1.70999-1.71z" fill="url(#paint0_linear_3195_2315)" style="fill: rgb(0, 0, 0);"></path><path d="m17.5401 21.3701c-1.77 0-3.21-1.44-3.21-3.21s1.44-3.21 3.21-3.21 3.21 1.44 3.21 3.21-1.44 3.21-3.21 3.21zm0-4.93c-.94 0-1.71.77-1.71 1.71s.77 1.71 1.71 1.71 1.71-.77 1.71-1.71-.77-1.71-1.71-1.71z" fill="url(#paint0_linear_3195_2315)" style="fill: rgb(0, 0, 0);"></path><path d="m6.46001 21.3701c-1.77 0-3.21001-1.44-3.21001-3.21s1.44001-3.21 3.21001-3.21 3.20999 1.44 3.20999 3.21-1.43999 3.21-3.20999 3.21zm0-4.93c-.94 0-1.71001.77-1.71001 1.71s.77001 1.71 1.71001 1.71 1.70999-.77 1.70999-1.71-.75999-1.71-1.70999-1.71z" fill="url(#paint0_linear_3195_2315)" style="fill: rgb(0, 0, 0);"></path></g></svg>