<?xml version="1.0" standalone="no"?>
<!DOCTYPE svg PUBLIC "-//W3C//DTD SVG 20010904//EN"
 "http://www.w3.org/TR/2001/REC-SVG-20010904/DTD/svg10.dtd">
<svg version="1.0" xmlns="http://www.w3.org/2000/svg"
 width="512.000000pt" height="512.000000pt" viewBox="0 0 512.000000 512.000000"
 preserveAspectRatio="xMidYMid meet">

<g transform="translate(0.000000,512.000000) scale(0.100000,-0.100000)"
fill="#000000" stroke="none">
<path d="M1713 5101 c-26 -12 -52 -35 -69 -61 -26 -40 -28 -49 -35 -208 -5
-92 -13 -191 -18 -221 -16 -79 -14 -99 14 -126 29 -30 64 -32 95 -7 30 24 48
125 55 307 4 77 8 150 11 163 l4 22 788 -2 787 -3 2 -55 c19 -422 101 -735
266 -1013 26 -43 47 -83 47 -89 0 -5 -21 -36 -47 -69 -44 -56 -48 -59 -77 -52
-163 42 -308 -65 -309 -225 l0 -53 -60 -30 c-79 -40 -279 -106 -342 -114 -50
-5 -50 -5 -80 37 -45 63 -105 93 -185 93 -80 0 -140 -30 -185 -93 -30 -42 -30
-42 -80 -37 -63 8 -263 74 -342 114 l-60 30 0 53 c-1 155 -145 268 -293 228
-44 -12 -44 -11 -72 22 -15 18 -40 50 -55 72 l-27 38 32 57 c55 93 152 298
152 319 0 35 -38 72 -74 72 -40 0 -65 -26 -95 -100 -13 -30 -47 -99 -77 -152
-206 -368 -555 -660 -988 -829 -109 -43 -149 -73 -167 -128 -17 -50 -13 -327
6 -497 75 -645 333 -1212 774 -1701 l102 -113 -93 0 c-99 0 -155 -17 -191 -58
-40 -44 -46 -88 -46 -317 0 -278 10 -313 104 -356 38 -18 110 -19 1675 -19
1565 0 1637 1 1675 19 94 43 104 78 104 356 0 229 -6 273 -46 317 -36 41 -92
58 -191 58 l-93 0 102 112 c120 134 246 299 335 440 74 118 206 381 257 513
126 324 196 699 199 1054 1 241 -8 256 -209 325 -137 48 -331 147 -453 234
-113 79 -302 265 -385 377 -133 179 -241 405 -295 619 -37 145 -50 240 -56
411 -6 174 -7 176 -46 221 -59 67 -16 64 -900 64 -767 0 -805 -1 -845 -19z
m-310 -1472 l45 -55 -14 -54 c-8 -31 -11 -70 -8 -90 13 -72 65 -145 126 -176
28 -14 28 -15 28 -115 l0 -101 -95 -118 c-165 -205 -278 -389 -324 -527 -43
-129 -21 -288 57 -409 211 -325 673 -325 884 1 89 136 103 306 39 458 -62 145
-181 327 -348 528 l-63 77 0 91 0 91 41 26 42 26 106 -50 c110 -52 276 -107
359 -118 46 -6 49 -8 76 -60 20 -39 43 -63 77 -86 l49 -31 0 -339 0 -338 -65
-77 c-177 -213 -318 -429 -377 -577 -67 -169 -45 -352 61 -503 82 -116 186
-187 329 -224 95 -24 169 -24 264 0 143 37 246 107 327 221 107 153 130 334
63 505 -58 148 -210 379 -390 594 l-62 73 0 329 0 328 54 36 c39 26 61 50 81
88 l28 53 71 13 c101 19 236 64 347 117 l95 46 37 -22 37 -22 0 -100 0 -100
-95 -118 c-165 -205 -278 -389 -324 -527 -43 -129 -21 -288 57 -409 211 -325
673 -325 884 1 89 136 103 306 39 458 -62 145 -181 327 -348 528 l-63 77 0 91
0 91 39 25 c103 64 144 159 117 265 l-14 54 41 51 42 51 124 -128 c135 -140
266 -245 418 -335 101 -59 295 -147 395 -178 l56 -18 4 -71 c5 -105 -8 -320
-27 -448 -90 -621 -374 -1189 -818 -1630 l-118 -118 -218 0 c-206 0 -220 -1
-245 -21 -36 -28 -36 -80 0 -108 26 -20 37 -21 439 -21 367 0 414 -2 419 -16
8 -20 8 -398 0 -418 -6 -15 -158 -16 -1624 -16 -1466 0 -1618 1 -1624 16 -8
20 -8 398 0 418 6 14 108 16 1059 16 1014 0 1054 1 1076 19 32 26 32 86 0 112
-22 18 -58 19 -882 19 l-858 0 -118 118 c-443 441 -726 1005 -818 1627 -19
127 -35 399 -27 474 l4 50 72 27 c100 38 239 103 326 154 184 106 403 284 515
418 32 40 62 71 66 70 4 -2 27 -28 52 -59z m292 -89 c29 -11 58 -69 48 -97
-13 -38 -46 -63 -83 -63 -62 0 -100 57 -75 116 19 47 60 63 110 44z m1800 0
c29 -11 58 -69 48 -97 -13 -38 -46 -63 -83 -63 -62 0 -100 57 -75 116 19 47
60 63 110 44z m-900 -300 c29 -11 58 -69 48 -97 -13 -38 -46 -63 -83 -63 -62
0 -100 57 -75 116 19 47 60 63 110 44z m-878 -412 c132 -164 254 -358 293
-465 61 -169 -25 -360 -198 -441 -49 -23 -70 -27 -152 -27 -82 0 -103 4 -152
27 -76 35 -138 95 -179 170 -32 59 -34 69 -34 158 0 92 1 98 43 180 68 134
296 460 322 460 3 0 29 -28 57 -62z m1800 0 c132 -164 254 -358 293 -465 61
-169 -25 -360 -198 -441 -49 -23 -70 -27 -152 -27 -82 0 -103 4 -152 27 -76
35 -138 95 -179 170 -32 59 -34 69 -34 158 0 92 1 98 43 180 68 134 296 460
322 460 3 0 29 -28 57 -62z m-871 -811 c118 -147 210 -287 268 -407 50 -103
51 -105 51 -200 0 -87 -3 -101 -32 -161 -58 -118 -167 -203 -294 -230 -175
-38 -369 62 -452 231 -29 59 -32 73 -32 160 0 95 1 97 51 200 28 58 81 150
119 205 67 99 225 304 235 304 3 0 42 -46 86 -102z"/>
<path d="M2086 429 c-19 -15 -26 -30 -26 -54 0 -24 7 -39 26 -54 26 -21 37
-21 474 -21 437 0 448 0 474 21 19 15 26 30 26 54 0 24 -7 39 -26 54 -26 21
-37 21 -474 21 -437 0 -448 0 -474 -21z"/>
<path d="M1589 2475 c-53 -17 -108 -66 -133 -120 -14 -28 -17 -55 -14 -105 4
-80 35 -134 100 -177 36 -24 51 -28 118 -28 67 0 82 4 118 28 65 43 96 97 100
177 3 50 0 77 -14 105 -26 56 -80 103 -137 120 -61 18 -78 18 -138 0z m115
-156 c52 -41 23 -129 -44 -129 -67 0 -96 88 -44 129 15 12 34 21 44 21 10 0
29 -9 44 -21z"/>
<path d="M3389 2475 c-53 -17 -108 -66 -133 -120 -14 -28 -17 -55 -14 -105 4
-80 35 -134 100 -177 36 -24 51 -28 118 -28 67 0 82 4 118 28 65 43 96 97 100
177 3 50 0 77 -14 105 -26 56 -80 103 -137 120 -61 18 -78 18 -138 0z m115
-156 c52 -41 23 -129 -44 -129 -67 0 -96 88 -44 129 15 12 34 21 44 21 10 0
29 -9 44 -21z"/>
<path d="M2432 1679 c-103 -51 -155 -136 -156 -254 -1 -110 57 -204 157 -257
60 -32 194 -32 254 0 55 29 107 83 135 141 28 57 30 166 5 224 -47 109 -150
177 -267 177 -55 0 -78 -6 -128 -31z m224 -162 c61 -67 50 -154 -25 -204 -67
-45 -156 -18 -195 60 -23 47 -16 94 21 138 35 41 58 50 117 45 42 -3 55 -9 82
-39z"/>
</g>
</svg>
