<?xml version="1.0" standalone="no"?>
<!DOCTYPE svg PUBLIC "-//W3C//DTD SVG 20010904//EN"
 "http://www.w3.org/TR/2001/REC-SVG-20010904/DTD/svg10.dtd">
<svg version="1.0" xmlns="http://www.w3.org/2000/svg"
 width="512.000000pt" height="512.000000pt" viewBox="0 0 512.000000 512.000000"
 preserveAspectRatio="xMidYMid meet">

<g transform="translate(0.000000,512.000000) scale(0.100000,-0.100000)"
fill="#000000" stroke="none">
<path d="M1750 5107 c-13 -7 -192 -228 -397 -492 -309 -398 -373 -485 -373
-512 0 -27 31 -66 211 -272 140 -160 220 -243 237 -248 40 -10 69 13 167 130
50 59 91 104 92 99 7 -23 43 -381 43 -422 0 -28 -9 -108 -20 -178 -20 -123
-28 -145 -256 -721 -270 -680 -392 -1006 -504 -1340 -99 -297 -180 -564 -180
-597 0 -56 24 -65 335 -128 160 -33 291 -60 292 -61 2 -1 -2 -26 -9 -56 -13
-64 -6 -104 22 -119 40 -22 684 -144 895 -171 134 -17 400 -14 550 6 216 28
816 144 856 165 27 15 34 56 21 119 -7 30 -11 55 -9 56 1 1 130 27 287 59 157
32 295 64 307 72 50 32 45 58 -82 456 -134 423 -246 724 -570 1543 -227 571
-235 594 -255 717 -11 70 -20 150 -20 178 0 41 36 399 43 422 1 5 43 -40 92
-99 98 -117 127 -140 167 -130 17 5 97 88 237 248 226 258 230 264 192 324
-54 84 -730 941 -751 952 -36 18 -1584 18 -1620 0z m319 -227 c33 -44 76 -109
96 -145 33 -58 41 -66 78 -75 157 -41 203 -66 256 -143 51 -74 106 -71 161 8
48 70 87 91 247 134 35 10 47 20 69 59 33 60 99 156 138 204 31 37 31 38 107
38 l76 0 328 -424 c181 -233 327 -427 326 -432 -4 -14 -271 -314 -279 -314 -4
1 -56 62 -117 136 -60 75 -121 144 -134 155 -32 25 -64 24 -97 -4 -26 -23 -27
-29 -60 -318 -18 -161 -33 -295 -33 -296 -1 -4 -1341 -4 -1342 0 0 1 -15 135
-33 296 -33 289 -34 295 -60 318 -33 28 -65 29 -97 4 -13 -11 -73 -80 -134
-155 -60 -74 -113 -135 -117 -136 -9 0 -279 306 -280 317 0 4 148 198 328 431
l327 422 93 0 93 0 60 -80z m823 6 c-44 -71 -50 -76 -102 -91 -68 -21 -138
-56 -179 -91 -30 -25 -33 -25 -54 -10 -68 50 -105 69 -177 93 -44 14 -80 30
-80 34 0 4 -20 37 -44 73 l-44 66 364 0 363 0 -47 -74z m350 -1636 c4 -25 10
-60 13 -77 l6 -33 -701 0 -702 0 6 28 c3 15 8 47 12 72 3 25 8 48 11 53 2 4
306 6 676 5 l671 -3 8 -45z m265 -790 c230 -579 394 -1011 489 -1294 82 -240
175 -539 169 -544 -9 -9 -481 -100 -486 -94 -3 4 -124 466 -268 1027 -154 601
-269 1030 -280 1045 -13 18 -29 26 -58 28 -34 3 -44 -1 -62 -24 -11 -15 -21
-33 -21 -41 0 -8 128 -512 285 -1121 157 -609 283 -1112 281 -1118 -4 -9 -224
-56 -541 -114 -243 -45 -528 -55 -740 -26 -238 33 -707 126 -712 142 -2 5 125
508 282 1116 157 609 285 1113 285 1121 0 8 -10 26 -21 41 -18 23 -28 27 -62
24 -29 -2 -45 -10 -58 -28 -11 -15 -125 -443 -280 -1045 -144 -561 -265 -1023
-268 -1027 -5 -6 -478 86 -487 95 -9 8 152 500 267 817 112 311 138 379 371
965 116 292 214 540 219 553 l9 22 741 -2 741 -3 205 -515z"/>
</g>
</svg>
