<?xml version="1.0" standalone="no"?>
<!DOCTYPE svg PUBLIC "-//W3C//DTD SVG 20010904//EN"
 "http://www.w3.org/TR/2001/REC-SVG-20010904/DTD/svg10.dtd">
<svg version="1.0" xmlns="http://www.w3.org/2000/svg"
 width="512.000000pt" height="512.000000pt" viewBox="0 0 512.000000 512.000000"
 preserveAspectRatio="xMidYMid meet">

<g transform="translate(0.000000,512.000000) scale(0.100000,-0.100000)"
fill="#000000" stroke="none">
<path d="M1143 4899 c-17 -5 -41 -21 -52 -35 -19 -24 -21 -40 -21 -170 l0
-144 29 -32 c27 -30 34 -33 105 -36 l76 -4 0 -104 0 -104 -47 0 c-68 0 -119
-17 -143 -47 -19 -25 -20 -38 -20 -463 l0 -438 -57 -23 c-439 -174 -784 -542
-932 -996 -190 -580 -31 -1213 410 -1639 75 -72 217 -182 273 -212 l31 -16
-44 -9 c-60 -12 -88 -32 -101 -73 -15 -44 1 -96 38 -121 26 -17 71 -18 912
-18 841 0 886 1 912 18 37 25 53 77 38 121 -13 41 -41 61 -101 73 l-44 9 31
16 c56 30 198 140 273 212 441 426 600 1059 410 1639 -148 454 -493 822 -931
996 l-58 23 0 438 c0 425 -1 438 -20 463 -24 30 -75 47 -142 47 l-48 0 0 104
0 105 108 -5 c1249 -55 1933 -480 2157 -1340 32 -123 62 -322 70 -474 l7 -115
-74 -22 c-216 -65 -425 -298 -507 -568 -68 -221 -68 -488 0 -710 54 -179 180
-369 307 -464 83 -63 154 -97 251 -122 197 -50 403 10 570 167 187 176 293
423 308 719 21 404 -169 786 -466 938 -51 26 -110 50 -131 53 -46 8 -46 6 -55
179 -31 571 -250 1070 -610 1387 -404 357 -988 546 -1797 584 l-138 6 0 58 c0
73 -14 114 -48 137 -25 16 -57 18 -362 20 -188 1 -349 -2 -367 -8z m567 -419
l0 -210 -110 0 -110 0 0 179 0 179 -31 31 -31 31 141 0 141 0 0 -210z m210
-849 l0 -419 25 -30 c16 -19 51 -39 102 -57 462 -167 810 -559 908 -1025 131
-621 -175 -1245 -752 -1534 -322 -161 -742 -181 -1087 -51 -438 165 -777 558
-871 1010 -96 464 45 933 384 1271 140 141 328 258 524 329 51 18 86 38 102
57 l25 30 0 419 0 419 320 0 320 0 0 -419z m2534 -1296 c199 -42 361 -236 427
-512 30 -123 30 -323 0 -446 -117 -490 -525 -677 -821 -377 -135 137 -220 369
-220 600 0 366 208 696 466 739 70 12 72 12 148 -4z"/>
<path d="M494 1910 c-12 -4 -31 -21 -44 -37 -21 -26 -22 -34 -17 -138 27 -539
451 -998 997 -1081 670 -101 1302 410 1337 1082 l6 111 -31 34 -30 34 -1099 2
c-604 1 -1108 -2 -1119 -7z m2056 -222 c0 -33 -28 -145 -50 -206 -64 -172
-176 -322 -321 -432 -514 -387 -1255 -170 -1479 432 -22 61 -50 173 -50 206
l0 22 950 0 950 0 0 -22z"/>
<path d="M4134 1703 c-12 -2 -34 -17 -50 -34 -27 -28 -28 -34 -26 -108 6 -208
109 -414 237 -472 97 -45 187 -3 187 86 0 48 -18 74 -67 95 -80 34 -129 129
-145 282 -8 81 -12 95 -37 119 -29 28 -63 39 -99 32z"/>
</g>
</svg>
